<?xml version="1.0" encoding="utf-8"?>
<!-- Generator: Adobe Illustrator 23.0.2, SVG Export Plug-In . SVG Version: 6.00 Build 0)  -->
<svg version="1.1" id="Layer_1" xmlns="http://www.w3.org/2000/svg" xmlns:xlink="http://www.w3.org/1999/xlink" x="0px" y="0px"
	 width="27px" height="27px" viewBox="0 0 27 27" style="enable-background:new 0 0 27 27;" xml:space="preserve">
<style type="text/css">
	.st0{fill:none;stroke:#4291CC;stroke-width:2;stroke-miterlimit:10;}
	.st1{fill:none;stroke:#E54F5C;stroke-width:2;stroke-miterlimit:10;}
	.st2{fill:none;stroke:#FFFFFF;stroke-width:2;stroke-miterlimit:10;}
	.st3{fill:none;stroke:#4F402E;stroke-width:2;stroke-miterlimit:10;}
	.st4{fill:none;stroke:#4291CC;stroke-miterlimit:10;}
	.st5{fill:none;stroke:#E54F5C;stroke-miterlimit:10;}
	.st6{fill:#4291CC;}
	.st7{fill:#E54F5C;}
	.st8{fill:none;stroke:#A1C8E5;stroke-miterlimit:10;}
	.st9{fill:none;stroke:#7BB2DB;stroke-width:2;stroke-miterlimit:10;}
	.st10{clip-path:url(#SVGID_2_);fill:none;stroke:#4291CC;stroke-miterlimit:10;}
	.st11{fill:none;stroke:#FFFFFF;stroke-miterlimit:10;}
	.st12{clip-path:url(#SVGID_4_);fill:none;stroke:#FFFFFF;stroke-miterlimit:10;}
	.st13{clip-path:url(#SVGID_6_);fill:none;stroke:#4291CC;stroke-miterlimit:10;}
	.st14{clip-path:url(#SVGID_6_);fill:none;stroke:#E54F5C;stroke-miterlimit:10;}
	.st15{clip-path:url(#SVGID_8_);fill:none;stroke:#4291CC;stroke-width:2;stroke-miterlimit:10;}
	.st16{clip-path:url(#SVGID_10_);fill:#E54F5C;}
	.st17{clip-path:url(#SVGID_10_);fill:#4291CC;}
	.st18{clip-path:url(#SVGID_10_);fill:#4F402E;}
	.st19{clip-path:url(#SVGID_10_);fill:none;stroke:#4291CC;stroke-width:2;stroke-miterlimit:10;}
</style>
<g>
	<path class="st2" d="M21,23.5H2.67 M24.33,13.5H16 M11,13.5H2.67 M24.33,3.5H6"/>
	<path class="st1" d="M13.5,11c1.38,0,2.5,1.12,2.5,2.5S14.88,16,13.5,16S11,14.88,11,13.5S12.12,11,13.5,11z M23.5,21
		c1.38,0,2.5,1.12,2.5,2.5S24.88,26,23.5,26S21,24.88,21,23.5S22.12,21,23.5,21z M3.5,1C4.88,1,6,2.12,6,3.5C6,4.88,4.88,6,3.5,6
		S1,4.88,1,3.5C1,2.12,2.12,1,3.5,1z"/>
</g>
</svg>
