<?xml version="1.0" encoding="utf-8"?>
<!-- Generator: Adobe Illustrator 23.0.2, SVG Export Plug-In . SVG Version: 6.00 Build 0)  -->
<svg version="1.1" id="Layer_1" xmlns="http://www.w3.org/2000/svg" xmlns:xlink="http://www.w3.org/1999/xlink" x="0px" y="0px"
	 width="16px" height="16px" viewBox="0 0 16 16" style="enable-background:new 0 0 16 16;" xml:space="preserve">
<style type="text/css">
	.st0{fill:none;stroke:#4291CC;stroke-width:2;stroke-miterlimit:10;}
	.st1{fill:none;stroke:#E54F5C;stroke-width:2;stroke-miterlimit:10;}
	.st2{fill:none;stroke:#FFFFFF;stroke-width:2;stroke-miterlimit:10;}
	.st3{fill:none;stroke:#4F402E;stroke-width:2;stroke-miterlimit:10;}
	.st4{fill:none;stroke:#4291CC;stroke-miterlimit:10;}
	.st5{fill:none;stroke:#E54F5C;stroke-miterlimit:10;}
	.st6{fill:#4291CC;}
	.st7{fill:#E54F5C;}
	.st8{fill:none;stroke:#A1C8E5;stroke-miterlimit:10;}
	.st9{fill:none;stroke:#7BB2DB;stroke-width:2;stroke-miterlimit:10;}
	.st10{clip-path:url(#SVGID_2_);fill:none;stroke:#4291CC;stroke-miterlimit:10;}
	.st11{fill:none;stroke:#FFFFFF;stroke-miterlimit:10;}
	.st12{clip-path:url(#SVGID_4_);fill:none;stroke:#FFFFFF;stroke-miterlimit:10;}
	.st13{clip-path:url(#SVGID_6_);fill:none;stroke:#4291CC;stroke-miterlimit:10;}
	.st14{clip-path:url(#SVGID_6_);fill:none;stroke:#E54F5C;stroke-miterlimit:10;}
	.st15{clip-path:url(#SVGID_8_);fill:none;stroke:#4291CC;stroke-width:2;stroke-miterlimit:10;}
	.st16{clip-path:url(#SVGID_10_);fill:#E54F5C;}
	.st17{clip-path:url(#SVGID_10_);fill:#4291CC;}
	.st18{clip-path:url(#SVGID_10_);fill:#4F402E;}
	.st19{clip-path:url(#SVGID_10_);fill:none;stroke:#4291CC;stroke-width:2;stroke-miterlimit:10;}
</style>
<g>
	<path class="st4" d="M12.5,14h-11 M14.5,8h-5 M6.5,8h-5 M14.5,2h-11"/>
	<path class="st5" d="M8,6.5c0.83,0,1.5,0.67,1.5,1.5S8.83,9.5,8,9.5S6.5,8.83,6.5,8S7.17,6.5,8,6.5z M14,12.5
		c0.83,0,1.5,0.67,1.5,1.5s-0.67,1.5-1.5,1.5s-1.5-0.67-1.5-1.5S13.17,12.5,14,12.5z M2,0.5c0.83,0,1.5,0.67,1.5,1.5
		c0,0.83-0.67,1.5-1.5,1.5S0.5,2.83,0.5,2C0.5,1.17,1.17,0.5,2,0.5z"/>
</g>
</svg>
