<?xml version="1.0" encoding="utf-8"?>
<!-- Generator: Adobe Illustrator 23.0.2, SVG Export Plug-In . SVG Version: 6.00 Build 0)  -->
<svg version="1.1" id="Layer_1" xmlns="http://www.w3.org/2000/svg" xmlns:xlink="http://www.w3.org/1999/xlink" x="0px" y="0px"
	 width="158px" height="39px" viewBox="0 0 158 39" style="enable-background:new 0 0 158 39;" xml:space="preserve">
<style type="text/css">
	.st0{fill:#E54F5C;}
	.st1{fill:#4291CC;}
	.st2{fill:#4F402E;}
</style>
<g>
	<path class="st0" d="M156.01,35.42c0.27,0,0.56-0.03,0.88-0.1c0.32-0.07,0.59-0.14,0.8-0.22v-1.64h-0.94c-0.57,0-0.86-0.3-0.86-0.9
		v-5.94h1.8v-1.96h-1.8v-2.94h-1.92l-0.44,2.94h-1.32v1.96h1.28v6.18c0,0.75,0.2,1.37,0.59,1.87
		C154.48,35.17,155.12,35.42,156.01,35.42 M145.51,33.5c-1.07,0-1.6-0.43-1.6-1.28c0-0.65,0.37-1.1,1.1-1.35
		c0.73-0.25,1.75-0.37,3.04-0.37v0.48c0,0.77-0.23,1.39-0.68,1.84C146.92,33.27,146.3,33.5,145.51,33.5 M144.79,35.42
		c1.45,0,2.57-0.48,3.36-1.44h0.14c0.12,0.44,0.35,0.79,0.7,1.04c0.35,0.25,0.78,0.38,1.3,0.38c0.57,0,1.07-0.1,1.5-0.3v-1.64h-0.64
		c-0.2,0-0.37-0.06-0.5-0.17c-0.13-0.11-0.2-0.29-0.2-0.53v-5.02c0-1.07-0.35-1.89-1.05-2.46c-0.7-0.57-1.75-0.86-3.15-0.86
		c-1.29,0-2.33,0.26-3.11,0.78c-0.78,0.52-1.17,1.23-1.17,2.14c0,0.21,0.01,0.36,0.02,0.44h2.32V27.5c0-0.33,0.15-0.61,0.44-0.84
		c0.29-0.23,0.79-0.34,1.5-0.34c0.68,0,1.15,0.14,1.41,0.42s0.39,0.67,0.39,1.18v0.88c-2.11,0-3.73,0.27-4.88,0.82
		c-1.15,0.55-1.72,1.49-1.72,2.84c0,1.13,0.34,1.91,1.03,2.33C143.17,35.21,143.94,35.42,144.79,35.42 M136.81,35.18h2.5v-2.54h-2.5
		V35.18z"/>
	<path class="st1" d="M124.83,35.18h2.4v-6.12c0-0.75,0.23-1.36,0.68-1.84c0.45-0.48,1.01-0.72,1.68-0.72
		c0.64,0,1.12,0.15,1.45,0.46c0.33,0.31,0.49,0.82,0.49,1.54v6.68h2.4v-7.1c0-1.28-0.3-2.21-0.9-2.79c-0.6-0.58-1.43-0.87-2.5-0.87
		c-0.73,0-1.38,0.14-1.95,0.43c-0.57,0.29-1.04,0.69-1.43,1.21h-0.14l-0.2-1.4h-1.98V35.18z M115.53,28.8
		c0.09-0.84,0.34-1.46,0.75-1.87c0.41-0.41,1.01-0.61,1.81-0.61c1.41,0,2.12,0.83,2.12,2.48H115.53z M118.09,35.42
		c1.37,0,2.49-0.33,3.34-0.99c0.85-0.66,1.28-1.64,1.28-2.93h-2.36c0,0.67-0.21,1.17-0.62,1.51c-0.41,0.34-0.95,0.51-1.62,0.51
		c-0.89,0-1.54-0.24-1.95-0.73c-0.41-0.49-0.63-1.25-0.67-2.29h7.22v-0.72c0-1.84-0.38-3.19-1.15-4.06c-0.77-0.87-1.92-1.3-3.47-1.3
		c-1.69,0-2.96,0.45-3.79,1.34c-0.83,0.89-1.25,2.28-1.25,4.16c0,1.88,0.41,3.27,1.24,4.16C115.12,34.97,116.39,35.42,118.09,35.42
		 M106.67,33.36c-0.83,0-1.43-0.28-1.82-0.83c-0.39-0.55-0.58-1.38-0.58-2.47v-0.24c0-2.23,0.8-3.34,2.4-3.34
		c0.88,0,1.51,0.26,1.88,0.79c0.37,0.53,0.56,1.37,0.56,2.53v0.26c0,1.15-0.19,1.98-0.56,2.51
		C108.18,33.1,107.55,33.36,106.67,33.36 M107.39,35.42c1.33,0,2.37-0.45,3.1-1.36c0.73-0.91,1.1-2.29,1.1-4.16
		c0-1.81-0.37-3.18-1.1-4.1c-0.73-0.92-1.71-1.38-2.94-1.38c-1.47,0-2.52,0.49-3.16,1.46h-0.12v-5.16h-2.4v14.46h1.98l0.2-1.4h0.12
		c0.35,0.53,0.8,0.94,1.36,1.22C106.09,35.28,106.71,35.42,107.39,35.42 M94.03,33.5c-1.07,0-1.6-0.43-1.6-1.28
		c0-0.65,0.37-1.1,1.1-1.35c0.73-0.25,1.75-0.37,3.04-0.37v0.48c0,0.77-0.23,1.39-0.68,1.84C95.44,33.27,94.82,33.5,94.03,33.5
		 M93.31,35.42c1.45,0,2.57-0.48,3.36-1.44h0.14c0.12,0.44,0.35,0.79,0.7,1.04c0.35,0.25,0.78,0.38,1.3,0.38
		c0.57,0,1.07-0.1,1.5-0.3v-1.64h-0.64c-0.2,0-0.37-0.06-0.5-0.17c-0.13-0.11-0.2-0.29-0.2-0.53v-5.02c0-1.07-0.35-1.89-1.05-2.46
		s-1.75-0.86-3.15-0.86c-1.29,0-2.33,0.26-3.11,0.78c-0.78,0.52-1.17,1.23-1.17,2.14c0,0.21,0.01,0.36,0.02,0.44h2.32V27.5
		c0-0.33,0.15-0.61,0.44-0.84c0.29-0.23,0.79-0.34,1.5-0.34c0.68,0,1.15,0.14,1.41,0.42c0.26,0.28,0.39,0.67,0.39,1.18v0.88
		c-2.11,0-3.73,0.27-4.88,0.82c-1.15,0.55-1.72,1.49-1.72,2.84c0,1.13,0.34,1.91,1.03,2.33C91.69,35.21,92.46,35.42,93.31,35.42
		 M81.49,37.08c-0.33,0-0.6-0.1-0.81-0.29c-0.21-0.19-0.31-0.45-0.31-0.77c0-0.31,0.1-0.56,0.31-0.76c0.21-0.2,0.48-0.3,0.81-0.3
		h4.04c0.35,0,0.63,0.09,0.84,0.28c0.21,0.19,0.32,0.45,0.32,0.78c0,0.32-0.13,0.58-0.38,0.77c-0.25,0.19-0.57,0.29-0.94,0.29H81.49
		z M83.41,29.86c-0.71,0-1.24-0.16-1.6-0.48s-0.54-0.79-0.54-1.4c0-0.6,0.18-1.06,0.54-1.39c0.36-0.33,0.89-0.49,1.6-0.49
		c0.71,0,1.24,0.16,1.6,0.49c0.36,0.33,0.54,0.79,0.54,1.39c0,0.6-0.18,1.06-0.54,1.39C84.65,29.7,84.12,29.86,83.41,29.86
		 M80.65,38.82h4.72c0.73,0,1.38-0.14,1.95-0.42c0.57-0.28,1-0.66,1.31-1.15c0.31-0.49,0.46-1.02,0.46-1.61
		c0-0.79-0.25-1.44-0.76-1.95c-0.51-0.51-1.15-0.77-1.94-0.77h-4.6c-0.25,0-0.45-0.06-0.6-0.19c-0.15-0.13-0.22-0.29-0.22-0.49
		c0-0.21,0.08-0.38,0.24-0.5c0.16-0.12,0.38-0.18,0.66-0.18h1.64c1.4,0,2.49-0.32,3.26-0.96c0.77-0.64,1.16-1.51,1.16-2.62
		c0-0.97-0.35-1.79-1.04-2.44c0.68-0.15,1.21-0.45,1.6-0.9c0.39-0.45,0.58-1.03,0.58-1.72h-2.32c-0.03,0.31-0.14,0.62-0.34,0.95
		c-0.2,0.33-0.51,0.62-0.94,0.87c-0.59-0.21-1.28-0.32-2.08-0.32c-1.43,0-2.54,0.32-3.33,0.95c-0.79,0.63-1.19,1.5-1.19,2.61
		c0,0.6,0.13,1.14,0.39,1.62c0.26,0.48,0.63,0.87,1.11,1.18c-0.51,0.12-0.94,0.33-1.29,0.64c-0.35,0.31-0.53,0.69-0.53,1.16
		c0,0.36,0.09,0.67,0.28,0.94c0.19,0.27,0.44,0.49,0.76,0.66c-1.09,0.49-1.64,1.22-1.64,2.18c0,0.77,0.26,1.38,0.79,1.81
		C79.27,38.6,79.91,38.82,80.65,38.82 M71.51,35.18h2.4V29.7c0-1.89,0.85-2.84,2.54-2.84h0.76V24.6c-0.05-0.03-0.17-0.06-0.36-0.11
		c-0.19-0.05-0.4-0.07-0.64-0.07c-1.09,0-1.88,0.63-2.36,1.9h-0.14l-0.22-1.66h-1.98V35.18z M62.21,28.8
		c0.09-0.84,0.34-1.46,0.75-1.87s1.01-0.61,1.81-0.61c1.41,0,2.12,0.83,2.12,2.48H62.21z M64.77,35.42c1.37,0,2.49-0.33,3.34-0.99
		c0.85-0.66,1.28-1.64,1.28-2.93h-2.36c0,0.67-0.21,1.17-0.62,1.51s-0.95,0.51-1.62,0.51c-0.89,0-1.54-0.24-1.95-0.73
		c-0.41-0.49-0.63-1.25-0.67-2.29h7.22v-0.72c0-1.84-0.38-3.19-1.15-4.06c-0.77-0.87-1.92-1.3-3.47-1.3c-1.69,0-2.96,0.45-3.79,1.34
		s-1.25,2.28-1.25,4.16c0,1.88,0.41,3.27,1.24,4.16S63.07,35.42,64.77,35.42 M51.93,35.18h2.98l5-13.72h-2.64l-2.92,8.36
		c-0.19,0.52-0.45,1.35-0.8,2.5h-0.1c-0.03-0.05-0.13-0.35-0.3-0.9c-0.24-0.73-0.42-1.26-0.54-1.58l-2.94-8.38h-2.76L51.93,35.18z"
		/>
	<path class="st2" d="M101.05,8.8c0.09-0.84,0.34-1.46,0.75-1.87c0.41-0.41,1.01-0.61,1.81-0.61c1.41,0,2.12,0.83,2.12,2.48H101.05z
		 M103.61,15.42c1.37,0,2.49-0.33,3.34-0.99c0.85-0.66,1.28-1.64,1.28-2.93h-2.36c0,0.67-0.21,1.17-0.62,1.51
		c-0.41,0.34-0.95,0.51-1.62,0.51c-0.89,0-1.54-0.24-1.95-0.73c-0.41-0.49-0.63-1.25-0.67-2.29h7.22V9.78
		c0-1.84-0.38-3.19-1.15-4.06c-0.77-0.87-1.92-1.3-3.47-1.3c-1.69,0-2.96,0.45-3.79,1.34c-0.83,0.89-1.25,2.28-1.25,4.16
		c0,1.88,0.41,3.27,1.24,4.16C100.64,14.97,101.91,15.42,103.61,15.42 M87.39,15.18h2.4V9.06c0-0.75,0.23-1.36,0.68-1.84
		c0.45-0.48,1.01-0.72,1.68-0.72c0.64,0,1.12,0.15,1.45,0.46c0.33,0.31,0.49,0.82,0.49,1.54v6.68h2.4v-7.1c0-1.28-0.3-2.21-0.9-2.79
		c-0.6-0.58-1.43-0.87-2.5-0.87c-0.73,0-1.38,0.14-1.95,0.43c-0.57,0.29-1.04,0.69-1.43,1.21h-0.14l-0.2-1.4h-1.98V15.18z
		 M78.09,8.8c0.09-0.84,0.34-1.46,0.75-1.87c0.41-0.41,1.01-0.61,1.81-0.61c1.41,0,2.12,0.83,2.12,2.48H78.09z M80.65,15.42
		c1.37,0,2.49-0.33,3.34-0.99c0.85-0.66,1.28-1.64,1.28-2.93h-2.36c0,0.67-0.21,1.17-0.62,1.51c-0.41,0.34-0.95,0.51-1.62,0.51
		c-0.89,0-1.54-0.24-1.95-0.73c-0.41-0.49-0.63-1.25-0.67-2.29h7.22V9.78c0-1.84-0.38-3.19-1.15-4.06c-0.77-0.87-1.92-1.3-3.47-1.3
		c-1.69,0-2.96,0.45-3.79,1.34c-0.83,0.89-1.25,2.28-1.25,4.16c0,1.88,0.41,3.27,1.24,4.16C77.68,14.97,78.95,15.42,80.65,15.42
		 M73.59,2.52h1V0.86c-0.21-0.08-0.48-0.15-0.79-0.21c-0.31-0.06-0.6-0.09-0.87-0.09c-0.95,0-1.62,0.26-2.03,0.78
		c-0.41,0.52-0.61,1.17-0.61,1.96v1.36h-3.88V3.42c0-0.6,0.3-0.9,0.9-0.9h1V0.86c-0.2-0.08-0.46-0.15-0.77-0.21
		c-0.31-0.06-0.61-0.09-0.89-0.09c-0.95,0-1.62,0.26-2.03,0.78s-0.61,1.17-0.61,1.96v1.36h-1.52v1.96h1.52v8.56h2.4V6.62h3.88v8.56
		h2.4V6.62h1.9V4.66h-1.9V3.42C72.69,2.82,72.99,2.52,73.59,2.52 M54.53,13.26c-1.4,0-2.46-0.4-3.19-1.19
		c-0.73-0.79-1.09-1.97-1.09-3.53V8.12c0-1.56,0.37-2.74,1.1-3.54c0.73-0.8,1.79-1.2,3.18-1.2c1.4,0,2.47,0.4,3.2,1.2
		c0.73,0.8,1.1,1.98,1.1,3.54v0.42c0,1.56-0.36,2.74-1.09,3.53C57.02,12.86,55.95,13.26,54.53,13.26 M54.53,15.42
		c2.2,0,3.9-0.59,5.11-1.78c1.21-1.19,1.81-2.96,1.81-5.32S60.85,4.19,59.64,3c-1.21-1.19-2.91-1.78-5.11-1.78
		c-2.2,0-3.9,0.59-5.1,1.78s-1.8,2.96-1.8,5.32s0.6,4.13,1.8,5.32S52.33,15.42,54.53,15.42"/>
	<path class="st0" d="M20.81,0.18v14.91h14.91C35.72,6.86,29.05,0.18,20.81,0.18"/>
</g>
<path class="st1" d="M17.22,18.68V3.77h-1c-8.77,0-15.91,7.14-15.91,15.91c0,8.77,7.14,15.91,15.91,15.91s15.91-7.14,15.91-15.91v-1
	H17.22z"/>
</svg>
