<?xml version="1.0" encoding="utf-8"?>
<!-- Generator: Adobe Illustrator 23.0.2, SVG Export Plug-In . SVG Version: 6.00 Build 0)  -->
<svg version="1.1" id="Ebene_1" xmlns="http://www.w3.org/2000/svg" xmlns:xlink="http://www.w3.org/1999/xlink" x="0px" y="0px"
	 width="250px" height="63px" viewBox="0 0 250 63" style="enable-background:new 0 0 250 63;" xml:space="preserve">
<style type="text/css">
	.netidee-st0{fill:#FFFFFF;}
</style>
<g>
	<path class="netidee-st0" d="M55.4,46.2c-1.7,0-3.1,1.3-3.3,3v1.7v0.2c0,1.8-1.5,3.3-3.3,3.3s-3.3-1.5-3.3-3.3V39.5c0-0.1,0-0.2,0-0.4v-9.8
		c0-3.8-1.3-7.5-3.7-10.4c-0.3-0.4-0.7-0.8-1.1-1.2c-0.6-0.6-1.3-1.2-2.1-1.7c-1.1-0.8-2.3-1.5-3.6-1.9c-0.7-0.3-1.4-0.5-2.2-0.7
		c0.7-2.3,2.2-4.3,4.3-5.5c0,0,0,0,0,0c3,1.1,5.8,2.9,8.2,5.2c3.9,3.9,6.3,9.2,6.7,14.7c0.3,1.5,1.6,2.6,3.2,2.6c0,0,0,0,0,0
		c0,0,0,0,0,0c1.6,0,3-1.2,3.3-2.8c0,0,0-0.1,0-0.1c0,0,0,0,0,0.1c0.1-0.3,0-1.3,0-1.6v-9.8c0-4.3-1.7-8.5-4.8-11.5
		c-0.4-0.4-0.7-0.7-1.1-1c-0.1-0.1-0.2-0.1-0.2-0.2c-0.3-0.3-0.7-0.5-1-0.7c-0.1,0-0.1-0.1-0.2-0.1c-0.8-0.5-1.7-1-2.6-1.4
		c-0.1,0-0.2-0.1-0.2-0.1C48,1,47.7,0.9,47.2,0.8c-0.1,0-0.2-0.1-0.2-0.1c-0.4-0.1-0.9-0.3-1.4-0.3c0,0,0,0,0,0
		C44.6,0.1,43.5,0,42.4,0c-1.9,0-3.8,0.3-5.6,1c-2.4-0.6-4.9-1-7.5-1C21.5,0,14.1,3.1,8.6,8.6C3.1,14.1,0,21.5,0,29.3v6.5v8.7v1.4
		c0,4.3,1.7,8.5,4.8,11.5c2.3,2.3,5.2,3.8,8.3,4.4c0,0,0,0,0,0c0,0,0,0,0,0c0.4,0.1,0.9,0.2,1.4,0.2c0.1,0,0.2,0,0.3,0
		c0.5,0.1,1.1,0.1,1.6,0.1c0,0,0,0,0,0h0h0c1.4,0,2.7-0.2,4-0.5c0.4-0.1,0.8-0.2,1.2-0.3c0.8-0.3,1.7-0.6,2.4-1c0,0,0.1,0,0.1,0
		c1.4-0.7,2.7-1.7,3.8-2.9c3.1-3.1,4.8-7.2,4.8-11.5V38v-8.6c0,0,0,0,0,0v-9.3v-3.8c0-0.9,0.1-1.8,0.4-2.6c-0.2,0.8-0.4,1.7-0.4,2.6
		v3.8c3.8,1.3,6.5,5,6.5,9.2v21.7c0,5.4,4.4,9.8,9.8,9.8c5.4,0,9.8-4.4,9.8-9.8v-0.2v-1.6C58.6,47.5,57.1,46.2,55.4,46.2z M6.5,45.8
		v-1.4h0V29.3c0-6,2.4-11.8,6.7-16.1c0.1-0.1,0.1-0.1,0.2-0.2c0.4-0.4,0.9-0.8,1.3-1.2c0.2-0.2,0.5-0.4,0.7-0.5
		c0.3-0.2,0.6-0.5,1-0.7c0.3-0.2,0.6-0.4,0.9-0.6c0.3-0.2,0.6-0.3,0.8-0.5c0.3-0.2,0.7-0.4,1-0.5c0.3-0.1,0.5-0.2,0.8-0.4
		c0.4-0.2,0.7-0.3,1.1-0.5c0.2-0.1,0.5-0.2,0.7-0.3c0.4-0.1,0.8-0.3,1.2-0.4c0.3-0.1,0.6-0.2,1-0.2c0.5-0.1,1.1-0.2,1.6-0.3
		c1.3-0.2,2.5-0.3,3.8-0.3c0,0,0,0,0,0c-1.5,2-2.5,4.3-3,6.8c-3.2,0.6-6.2,2.1-8.5,4.5C14.7,20.9,13,25,13,29.3v16.3
		c0,1.8,1.5,3.3,3.3,3.3c1.8,0,3.3-1.5,3.3-3.3V29.3c0-4.3,2.7-7.9,6.5-9.2v2v7.3v3.8V38v7.8c0,0,0,0,0,0c0,0.3,0,0.6,0,0.9
		c0,0.1,0,0.1,0,0.2c-0.5,4.9-4.7,8.7-9.7,8.7C10.9,55.6,6.5,51.2,6.5,45.8z"/>
	<path class="netidee-st0" d="M55.4,35c-1.8,0-3.3,1.5-3.3,3.3c0,1.8,1.5,3.3,3.3,3.3c1.8,0,3.3-1.5,3.3-3.3C58.6,36.5,57.2,35,55.4,35z"/>
</g>
<path class="netidee-st0" d="M93.7,41.4c-2.1,0-3.2-1.1-3.2-3.3V24.3c0-6.2-2.3-8.6-7.6-8.6c-4.5,0-7,2.5-7,8.6v17H74
	c-1.8,0-3.1-1.1-3.1-3.5V24.2c0-8.4,5-13.3,12.7-13.3c7.5,0,12,4.3,12,13.2v17.2H93.7z"/>
<path class="netidee-st0" d="M112.9,28.7h-7.4c0.5,5,4,8.5,9.6,8.5c4.6,0,7.4-1.5,9.1-3.1h0.3v2.2c0,3.1-3.4,5.5-10.1,5.5
	c-8.2,0-14-6.3-14-14.9c0-9.7,6-16.1,14-16.1c5.8,0,11.3,4.4,11.3,10.4C125.6,26.5,123.1,28.7,112.9,28.7z M113.7,15.5
	c-4.9,0-8,4.1-8.2,8l-0.1,1.2l6.8-0.1c7.2-0.1,8.4-0.8,8.4-3C120.6,18.3,118.4,15.5,113.7,15.5z"/>
<path class="netidee-st0" d="M135.9,11.5h10.3v1.7c0,1.8-1.2,3.1-3.9,3.1h-6.3v14.8c0,4.2,1.7,6,4.9,6c1.8,0,3.6-0.2,4.7-0.8h0.3v1.8
	c0,2.5-2,3.9-5.4,3.9c-6.6,0-9.6-3.5-9.6-10.3V12.1c0-1.7,0.4-3.4,1.3-4.6c0.7-1.1,2.4-2.1,3.1-2.1h0.6V11.5z"/>
<path class="netidee-st0" d="M152.7,7.3c-1.9,0-3.5-1.6-3.5-3.5c0-1.9,1.6-3.5,3.5-3.5c1.9,0,3.4,1.6,3.4,3.5C156.1,5.8,154.6,7.3,152.7,7.3
	z M159,41.6c-5.9,0-8.9-2.9-8.9-8.9V11.5h1.6c1.7,0,3.5,1.3,3.5,4V32c0,3.7,1.8,4.9,4.6,4.9h2.2v1.7C161.9,40.5,160.8,41.6,159,41.6
	z"/>
<path class="netidee-st0" d="M177.3,41.9c-7.4,0-13.7-6.8-13.7-15.1c0-10.2,4.8-15.9,13.1-15.9c3.6,0,6.9,1.7,9,5.8V1.1h1.3
	c2.5,0,3.8,1.3,3.8,4.1v20.3C190.8,37,186.6,41.9,177.3,41.9z M176.9,15.6c-5.2,0-8.1,4-8.1,10.7c0,6,3.7,10.8,9,10.8
	c5.4,0,7.9-2.9,7.9-10.2C185.6,21.5,184,15.6,176.9,15.6z"/>
<path class="netidee-st0" d="M208.1,28.7h-7.4c0.5,5,4,8.5,9.6,8.5c4.6,0,7.4-1.5,9.1-3.1h0.3v2.2c0,3.1-3.4,5.5-10.1,5.5
	c-8.2,0-14-6.3-14-14.9c0-9.7,6-16.1,14-16.1c5.8,0,11.3,4.4,11.3,10.4C220.8,26.5,218.4,28.7,208.1,28.7z M209,15.5
	c-4.9,0-8,4.1-8.2,8l-0.1,1.2l6.8-0.1c7.2-0.1,8.4-0.8,8.4-3C215.9,18.3,213.7,15.5,209,15.5z"/>
<path class="netidee-st0" d="M237.3,28.7h-7.4c0.5,5,4,8.5,9.6,8.5c4.6,0,7.4-1.5,9.1-3.1h0.3v2.2c0,3.1-3.4,5.5-10.1,5.5
	c-8.2,0-14-6.3-14-14.9c0-9.7,6-16.1,14-16.1c5.8,0,11.3,4.4,11.3,10.4C250,26.5,247.5,28.7,237.3,28.7z M238.2,15.5
	c-4.9,0-8,4.1-8.2,8l-0.1,1.2l6.8-0.1c7.2-0.1,8.4-0.8,8.4-3C245.1,18.3,242.8,15.5,238.2,15.5z"/>
<g>
	<path class="netidee-st0" d="M145.6,49.2V54h3.7v0.6h-3.7v3.5H145v-9.6h5.5v0.6H145.6z"/>
	<path class="netidee-st0" d="M157.3,58.4C157.2,58.4,157.2,58.4,157.3,58.4h-0.2c-1.2,0-2.4-0.6-3.2-1.5c-0.9-0.9-1.4-2.2-1.4-3.5
		c0-1.3,0.5-2.6,1.4-3.5c0.9-0.9,2-1.4,3.2-1.5h0.2c1.2,0,2.4,0.6,3.2,1.5c0.9,0.9,1.4,2.2,1.4,3.5c0,1.3-0.5,2.6-1.4,3.5
		C159.6,57.8,158.5,58.3,157.3,58.4z M157.2,49c-2.3,0.1-4.1,2-4.1,4.4c0,2.4,1.8,4.3,4.1,4.4c2.3-0.1,4.1-2,4.1-4.4
		C161.3,51,159.5,49,157.2,49z M155.7,47h0.8v-0.8h-0.8V47z M157.9,47h0.8v-0.8h-0.8V47z"/>
	<path class="netidee-st0" d="M168.7,54.7l2.1,3.5H170l-2-3.4c-0.9,0.1-1.9-0.1-2.4-0.2v3.6H165v-9.4l0.2-0.1c0.1,0,3.1-0.9,4.8,0.3
		c0.7,0.5,1.1,1.4,1.1,2.6c0,1.2-0.4,2-1.1,2.6C169.6,54.5,169.2,54.6,168.7,54.7z M169.6,53.7c0.6-0.4,0.9-1.1,0.9-2.1
		s-0.3-1.6-0.9-2.1c-1.2-0.9-3.3-0.4-4-0.3v4.6C166.3,54.1,168.4,54.6,169.6,53.7z"/>
	<path class="netidee-st0" d="M180.5,56.8c-0.9,0.9-2.1,1.4-3.4,1.4h-2.9v-9.6h2.9c1.3,0,2.5,0.5,3.4,1.4c0.9,0.9,1.4,2.1,1.4,3.4
		C181.9,54.7,181.4,55.9,180.5,56.8z M181.3,53.4c0-2.3-1.9-4.2-4.2-4.2v0h-2.3v8.4h2.3C179.4,57.6,181.3,55.7,181.3,53.4z"/>
	<path class="netidee-st0" d="M190.6,57.6v0.6H185v-9.6h5.5v0.6h-4.8v4.8h3.7v0.6h-3.7v2.9H190.6z"/>
	<path class="netidee-st0" d="M197.4,54.7l2.1,3.5h-0.7l-2-3.4c-0.9,0.1-1.9-0.1-2.4-0.2v3.6h-0.6v-9.4l0.2-0.1c0.1,0,3.1-0.9,4.8,0.3
		c0.7,0.5,1.1,1.4,1.1,2.6c0,1.2-0.4,2-1.1,2.6C198.3,54.5,197.9,54.6,197.4,54.7z M198.3,53.7c0.6-0.4,0.9-1.1,0.9-2.1
		s-0.3-1.6-0.9-2.1c-1.2-0.9-3.3-0.4-4-0.3v4.6C195,54.1,197.1,54.6,198.3,53.7z"/>
	<path class="netidee-st0" d="M205.7,58.3c-1.7,0-3.1-1.4-3.1-3.1v-6.6h0.6v6.6c0,1.4,1.1,2.5,2.5,2.5c1.4,0,2.5-1.1,2.5-2.5v-6.6h0.6v6.6
		C208.8,56.9,207.5,58.3,205.7,58.3z"/>
	<path class="netidee-st0" d="M218.8,48.6v9.6h-0.5l-5.8-8.3v8.3h-0.6v-9.6h0.5l5.8,8.3v-8.3H218.8z"/>
	<path class="netidee-st0" d="M229.9,56.7l-0.2,0.2c-0.2,0.2-0.3,0.3-0.5,0.4c-0.8,0.6-1.7,1-2.8,1h-0.1c0,0-0.1,0-0.1,0
		c-1.2-0.1-2.3-0.6-3.2-1.5c-0.9-0.9-1.4-2.2-1.4-3.5s0.5-2.6,1.4-3.5c0.9-0.9,2-1.4,3.2-1.5h0.2c1.2,0,2.4,0.6,3.2,1.5l0.1,0.1
		l-0.5,0.4c-0.7-0.8-1.8-1.3-2.9-1.3c-2.3,0.1-4.1,2-4.1,4.3c0,2.4,1.8,4.3,4.1,4.3c1.1,0,2.1-0.5,2.8-1.2v-1.8h-3.1V54h3.7V56.7z"
		/>
	<path class="netidee-st0" d="M238.6,57.6v0.6h-5.6v-9.6h5.5v0.6h-4.8v4.8h3.7v0.6h-3.7v2.9H238.6z"/>
	<path class="netidee-st0" d="M248.6,48.6v9.6h-0.5l-5.8-8.3v8.3h-0.6v-9.6h0.5l5.8,8.3v-8.3H248.6z"/>
</g>
</svg>
